<?xml version="1.0" encoding="UTF-8" standalone="no"?>
<!-- Created with Inkscape (http://www.inkscape.org/) by Marsupilami -->
<svg
   xmlns:svg="http://www.w3.org/2000/svg"
   xmlns="http://www.w3.org/2000/svg"
   version="1.0"
   width="1024"
   height="240"
   viewBox="0 0 282.98499 66.370003"
   id="svg2558">
  <defs
     id="defs2560">
    <clipPath
       id="clipPath3572">
      <path
         d="M 0,1 L 0,0 L 1,0 L 1,1"
         id="path3574" />
    </clipPath>
    <clipPath
       id="clipPath3564">
      <path
         d="M -1.62502,-13.2076 L 1.07831,-13.2076 L 1.07831,1.70882 L -1.62502,1.70882 L -1.62502,-13.2076 z "
         id="path3566" />
    </clipPath>
    <clipPath
       id="clipPath3554">
      <path
         d="M 0,0 L 612,0 L 612,792 L 0,792 L 0,0 z "
         id="path3556" />
    </clipPath>
    <clipPath
       id="clipPath3544">
      <path
         d="M 365.15,688.242 L 596.413,688.242 L 596.413,764.493 L 365.15,764.493 L 365.15,688.242 z "
         id="path3546" />
    </clipPath>
  </defs>
  <g
     transform="translate(541.4925,-33.4629)"
     id="layer1">
    <g
       transform="matrix(1.25,0,0,-1.25,-1001.3475,976.41915)"
       id="g3540">
      <g
         clip-path="url(#clipPath3544)"
         id="g3542">
        <g
           id="g3548">
          <g
             id="g3550">
            <g
               clip-path="url(#clipPath3554)"
               id="g3552">
              <g
                 transform="matrix(226.388,0,0,53.096,367.884,701.269)"
                 id="g3558">
                <g
                   id="g3560">
                  <g
                     clip-path="url(#clipPath3564)"
                     id="g3562">
                    <g
                       id="g3568">
                      <g
                         clip-path="url(#clipPath3572)"
                         id="g3570">
                        <path
                           d="M 0.9428,0.7465 L 0.9154,0.5283 L 0.9338,0.3848 L 0.9789,0.7465 L 0.9428,0.7465 z M 0.8373,0.7465 L 0.8836,0.3848 L 0.9012,0.5265 L 0.8729,0.7465 L 0.8373,0.7465 z M 0.9082,0.5831 L 0.9355,0.8025 L 0.9534,0.944 L 0.862,0.944 L 0.9082,0.5831 z M 0.8154,0.8025 L 0.8656,0.8025 L 0.8401,1 L 0.9745,1 L 0.9498,0.8025 L 1,0.8025 L 0.9338,0.2741 L 0.9083,0.4716 L 0.8836,0.2741 L 0.8154,0.8025"
                           style="fill:#1d9b6c;fill-opacity:1;fill-rule:nonzero;stroke:none"
                           id="path3576" />
                        <path
                           d="M 0,24.46875 L 14.875,66.375 L 29.4375,66.375 L 39.40625,32.875 L 39.5625,32.875 L 49.6875,66.375 L 64.1875,66.375 L 78.8125,24.46875 L 67.875,24.46875 L 57.34375,57.96875 L 57.1875,57.96875 L 47.28125,24.46875 L 32,24.46875 L 22.4375,57.96875 L 22.28125,57.96875 L 11.84375,24.46875 L 0,24.46875 z M 85.1875,24.46875 L 85.1875,66.375 L 96.4375,66.375 L 96.4375,24.46875 L 85.1875,24.46875 z M 108.5,24.46875 L 108.5,66.375 L 123.875,66.375 C 141.08049,66.374997 156.25,62.063185 156.25,45.4375 C 156.25,28.811813 141.08049,24.46875 123.875,24.46875 L 108.5,24.46875 z M 165.59375,24.46875 L 165.59375,66.375 L 176.875,66.375 L 176.875,24.46875 L 165.59375,24.46875 z M 205,24.46875 L 183.125,66.375 L 194.78125,66.375 L 199.6875,56.78125 L 222.46875,56.78125 L 227.25,66.375 L 239.75,66.375 L 217.6875,24.46875 L 205,24.46875 z M 119.75,31.09375 L 126.03125,31.09375 C 135.42635,31.093749 144.53125,36.311625 144.53125,45.4375 C 144.53124,54.563373 135.42635,59.78125 126.03125,59.78125 L 119.75,59.78125 L 119.75,31.09375 z M 211.03125,32.875 L 211.1875,32.875 L 219.3125,50.15625 L 202.90625,50.15625 L 211.03125,32.875 z "
                           transform="matrix(3.5337562e-3,0,0,-1.5067048e-2,0,1)"
                           style="fill:#231f20;fill-opacity:1;fill-rule:nonzero;stroke:none"
                           id="path3578" />
                      </g>
                    </g>
                  </g>
                </g>
              </g>
            </g>
          </g>
        </g>
      </g>
    </g>
  </g>
</svg>
